<svg width="50" height="50" viewBox="0 0 50 50" fill="none" xmlns="http://www.w3.org/2000/svg">
<g clip-path="url(#clip0_1_298)">
<path d="M11.6801 48.43C11.5901 48.43 11.5001 48.43 11.4101 48.42C10.7501 48.35 10.1601 48.03 9.74006 47.51L0.550058 36.11C0.130058 35.59 -0.0599417 34.95 0.0100583 34.29C0.0800583 33.63 0.400058 33.04 0.920058 32.62L3.37006 30.64C4.44006 29.78 6.00006 29.95 6.86006 31.01L16.0501 42.4C16.9101 43.47 16.7401 45.03 15.6801 45.89L13.2301 47.87C12.7801 48.23 12.2401 48.42 11.6701 48.42L11.6801 48.43ZM4.94006 32.05C4.82006 32.05 4.71006 32.09 4.61006 32.17L2.16006 34.15C2.05006 34.24 1.98006 34.36 1.97006 34.5C1.96006 34.64 2.00006 34.78 2.08006 34.88L11.2701 46.27C11.3601 46.38 11.4801 46.45 11.6201 46.46C11.7601 46.47 11.9001 46.43 12.0001 46.35L14.4501 44.37C14.5601 44.28 14.6301 44.16 14.6401 44.02C14.6501 43.88 14.6101 43.74 14.5301 43.64L5.34006 32.25C5.24006 32.12 5.09006 32.06 4.93006 32.06L4.94006 32.05Z" fill="white"/>
<path d="M38.3201 48.42C37.7701 48.42 37.2201 48.24 36.7601 47.87L34.3101 45.89C33.2401 45.03 33.0801 43.46 33.9401 42.4L43.1301 31.01C43.9901 29.94 45.5601 29.78 46.6201 30.64L49.0701 32.62C49.5901 33.04 49.9101 33.63 49.9801 34.29C50.0501 34.95 49.8601 35.6 49.4401 36.11L40.2501 47.5C39.7601 48.11 39.0401 48.42 38.3101 48.42H38.3201ZM45.0601 32.05C44.9101 32.05 44.7601 32.12 44.6501 32.24L35.4601 43.63C35.3701 43.74 35.3301 43.88 35.3501 44.01C35.3601 44.15 35.4301 44.27 35.5401 44.36L37.9901 46.34C38.2101 46.52 38.5401 46.49 38.7301 46.26L47.9201 34.87C48.0101 34.76 48.0501 34.62 48.0301 34.49C48.0201 34.35 47.9501 34.23 47.8401 34.14L45.3901 32.16C45.2901 32.08 45.1801 32.04 45.0601 32.04V32.05Z" fill="white"/>
<path d="M15.6001 44.6399C15.3101 44.6399 15.0301 44.51 14.8301 44.27C14.4901 43.85 14.5601 43.2299 14.9801 42.8899C15.1201 42.7799 18.4701 40.12 22.9901 39.83C27.2901 39.5499 28.2001 38.91 28.8701 38.45C29.5001 38.01 35.7801 33.1 40.9701 29.02C41.2001 28.84 41.3801 28.63 41.4901 28.41C41.6301 28.13 42.0701 27.26 40.1901 26.17C39.9601 26.04 39.8001 25.82 39.7301 25.56C39.6601 25.3 39.7101 25.03 39.8401 24.81C39.8401 24.81 40.1401 24.29 40.1701 23.64C40.2001 22.85 39.8201 22.2 39.0001 21.66C38.7601 21.5 38.5901 21.24 38.5601 20.95C38.5301 20.66 38.6301 20.37 38.8301 20.17C38.8301 20.17 39.3601 19.58 39.2301 18.95C39.1201 18.39 38.5001 17.82 37.4301 17.32C36.9801 17.11 36.7601 16.6 36.9201 16.13C36.9201 16.12 37.3901 14.57 36.5501 13.98C35.7901 13.44 33.8101 13.16 31.1301 13.77C30.8601 13.83 30.5301 13.93 30.1801 14.06C30.1501 14.07 30.1301 14.08 30.1001 14.09C29.0701 14.47 27.7701 15.07 26.5101 15.65C25.4301 16.15 24.4101 16.62 23.5301 16.97C21.3001 17.8499 19.7501 18.34 17.9101 18.37C16.3801 18.4 14.5301 17.17 14.1801 15.89C13.9901 15.18 14.2501 14.52 14.8801 14.16C15.0901 14.04 15.3101 13.92 15.5501 13.8C16.4301 13.34 17.5201 12.77 19.0601 11.39C20.2001 10.37 21.0001 9.77995 21.9101 9.58995C22.9201 9.37995 23.8701 9.69995 25.0901 10.28C26.9601 11.18 27.9401 11.66 29.7701 12.12C30.1101 12 30.4301 11.91 30.7101 11.84C31.8201 11.59 35.6201 10.88 37.7001 12.36C39.0701 13.33 39.1001 14.92 38.9701 15.89C40.2301 16.62 40.9701 17.53 41.1701 18.58C41.3201 19.39 41.1101 20.0999 40.8601 20.62C41.9901 21.7 42.1901 22.92 42.1301 23.82C42.1001 24.24 42.0101 24.63 41.9101 24.94C44.2101 26.65 43.6401 28.51 43.2501 29.28C43.0101 29.76 42.6501 30.19 42.1901 30.55C39.5401 32.63 30.8401 39.47 30.0001 40.05C28.9301 40.79 27.6001 41.48 23.1301 41.77C19.2401 42.03 16.2401 44.38 16.2101 44.41C16.0301 44.55 15.8101 44.62 15.6001 44.62V44.6399ZM16.2801 15.63C16.6101 15.97 17.2901 16.42 17.8901 16.4C19.2601 16.38 20.5001 16.06 22.8201 15.14C23.6501 14.81 24.6501 14.35 25.7001 13.86C26.1201 13.67 26.5401 13.47 26.9601 13.28C26.1101 12.95 25.3001 12.55 24.2401 12.04C22.4301 11.17 22.2101 11.21 20.3801 12.84C18.6501 14.38 17.3901 15.04 16.4701 15.52C16.4101 15.55 16.3401 15.59 16.2801 15.62V15.63Z" fill="white"/>
<path d="M33.03 19.09C32.68 19.09 32.34 18.9 32.16 18.57C31.91 18.09 32.09 17.5 32.57 17.25C32.7 17.18 35.68 15.62 37.79 15.46C38.33 15.42 38.8 15.82 38.84 16.36C38.88 16.9 38.48 17.37 37.94 17.41C36.53 17.52 34.24 18.58 33.48 18.98C33.33 19.06 33.18 19.09 33.02 19.09H33.03Z" fill="white"/>
<path d="M35.01 23.57C34.66 23.57 34.32 23.38 34.14 23.04C33.89 22.56 34.07 21.97 34.55 21.72C34.66 21.66 37.36 20.26 39.36 19.88C39.89 19.78 40.4 20.13 40.51 20.66C40.61 21.19 40.26 21.7 39.73 21.81C38.01 22.14 35.49 23.45 35.46 23.46C35.31 23.54 35.16 23.57 35.01 23.57Z" fill="white"/>
<path d="M36.47 28.3599C36.14 28.3599 35.81 28.1899 35.63 27.8899C35.35 27.4299 35.5 26.8199 35.96 26.5399C36.07 26.4699 38.79 24.8399 40.42 24.3699C40.94 24.2199 41.48 24.5199 41.63 25.0399C41.78 25.5599 41.48 26.0999 40.96 26.2499C39.82 26.5799 37.7 27.7799 36.98 28.2099C36.82 28.3099 36.65 28.3499 36.48 28.3499L36.47 28.3599Z" fill="white"/>
<path d="M43.9 32.61C43.78 32.61 43.65 32.59 43.53 32.54C43.47 32.52 42.05 31.93 40.83 30.41C40.49 29.99 40.56 29.37 40.98 29.03C41.4 28.69 42.02 28.76 42.36 29.18C43.25 30.29 44.27 30.73 44.28 30.73C44.78 30.93 45.02 31.51 44.81 32.01C44.65 32.39 44.29 32.62 43.9 32.62V32.61Z" fill="white"/>
<path d="M34.7 44C34.53 44 34.36 43.96 34.21 43.87C34.15 43.84 30.11 41.51 26.05 41.47C25.51 41.47 25.07 41.02 25.08 40.48C25.08 39.94 25.52 39.51 26.06 39.51C30.66 39.56 35.01 42.07 35.19 42.18C35.66 42.45 35.81 43.05 35.54 43.52C35.36 43.83 35.03 44.01 34.69 44.01L34.7 44Z" fill="white"/>
<path d="M17.74 22.45C16.87 22.45 15.91 22.11 15.01 21.75C14.71 21.63 14.38 21.5 14.02 21.37C12.2 20.69 10.13 19.92 9.60001 18.36C9.43001 17.87 9.35001 17.08 9.93001 16.13C10.68 14.91 11.91 14.17 13.49 13.98C14.6 13.85 15.49 14.03 15.59 14.05C16.12 14.17 16.45 14.69 16.34 15.22C16.22 15.75 15.7 16.08 15.18 15.97C15.16 15.97 14.48 15.83 13.68 15.93C12.72 16.06 12.03 16.47 11.6 17.16C11.38 17.52 11.43 17.68 11.45 17.73C11.68 18.41 13.5 19.09 14.71 19.54C15.08 19.68 15.42 19.81 15.75 19.94C17.97 20.85 18.15 20.48 18.4 19.98C18.57 19.64 18.5 19.54 18.36 19.36C18.01 18.95 17.18 18.46 16.41 18.04C15.94 17.78 15.76 17.18 16.02 16.71C16.28 16.24 16.88 16.06 17.35 16.32C18.51 16.96 19.33 17.48 19.86 18.1C20.54 18.91 20.64 19.85 20.16 20.84C19.57 22.05 18.7 22.46 17.75 22.46L17.74 22.45Z" fill="white"/>
<path d="M16.5399 26.46C15.6899 26.46 14.6699 26.25 13.4699 25.99C10.8699 25.44 9.40991 24.91 8.57991 24.2C7.59991 23.36 7.59991 22.41 7.60991 21.64C7.60991 21.58 7.60991 21.52 7.60991 21.47C7.60991 20.51 8.19991 19.63 9.33991 18.84C10.0699 18.33 10.8099 18.04 10.8399 18.02C11.3399 17.82 11.9099 18.06 12.1199 18.56C12.3199 19.06 12.0799 19.63 11.5799 19.84C10.6299 20.23 9.5699 21.01 9.5699 21.48C9.5699 21.54 9.5699 21.61 9.5699 21.67C9.5699 22.35 9.58991 22.5 9.84991 22.72C10.3899 23.18 11.7399 23.63 13.8799 24.08C17.1399 24.76 17.2199 24.58 17.6399 23.72C17.7499 23.48 17.7199 23.34 17.6699 23.22C17.4699 22.78 16.7199 22.3 15.8899 22.08C15.3699 21.94 15.0599 21.4 15.1999 20.88C15.3399 20.36 15.8799 20.05 16.3999 20.19C16.9499 20.34 18.7799 20.93 19.4599 22.4C19.7799 23.1 19.7699 23.84 19.4199 24.57C18.7299 26.02 17.8099 26.47 16.5599 26.47L16.5399 26.46Z" fill="white"/>
<path d="M14.85 29.93C14.71 29.93 14.57 29.93 14.43 29.91C11.21 29.55 7.44995 28.3001 7.44995 25.9701C7.44995 24.2 8.92995 23.3 9.80995 23.05L10.35 24.93C10.31 24.93 9.39995 25.2301 9.39995 25.9701C9.39995 26.7101 11.18 27.58 14.64 27.9701C15.2 28.0301 15.59 27.84 15.8 27.41C16 26.99 15.96 26.42 15.71 26.18C15.33 25.8 15.32 25.18 15.71 24.79C16.09 24.41 16.71 24.4 17.1 24.79C17.95 25.64 18.15 27.06 17.57 28.26C17.05 29.34 16.05 29.95 14.84 29.95L14.85 29.93Z" fill="white"/>
<path d="M10.95 32.68C10.57 32.68 10.15 32.63 9.68002 32.52C8.19002 32.17 7.24001 31.61 6.79002 30.8C6.28002 29.89 6.58001 28.98 6.70001 28.64C7.19001 27.17 8.67001 26.61 9.47001 26.51L9.71001 28.46C9.71001 28.46 8.77001 28.6 8.55001 29.27C8.42001 29.65 8.45001 29.78 8.49001 29.86C8.55001 29.96 8.83001 30.32 10.12 30.62C10.69 30.76 11.48 30.83 11.94 30.41C12.28 30.1 12.43 29.55 12.34 28.89C12.27 28.35 12.65 27.86 13.18 27.79C13.72 27.72 14.21 28.1 14.28 28.63C14.45 29.93 14.08 31.11 13.25 31.86C12.8 32.27 12.06 32.69 10.94 32.69L10.95 32.68Z" fill="white"/>
<path d="M6.41002 32.56L5.79002 30.7C5.79002 30.7 5.79002 30.7 5.77002 30.7C5.77002 30.7 6.28002 30.49 6.91002 29.73C7.26002 29.31 7.87002 29.25 8.29002 29.6C8.71002 29.95 8.77002 30.56 8.42002 30.98C7.44002 32.16 6.57002 32.49 6.41002 32.55V32.56Z" fill="white"/>
<path d="M23.02 7.81995C22.48 7.81995 22.04 7.37995 22.04 6.83995V2.54995C22.04 2.00995 22.48 1.56995 23.02 1.56995C23.56 1.56995 24 2.00995 24 2.54995V6.82995C24 7.36995 23.56 7.80995 23.02 7.80995V7.81995Z" fill="white"/>
<path d="M27.1899 8.47005C27.0399 8.47005 26.8899 8.44005 26.7499 8.37005C26.2699 8.13005 26.0699 7.54005 26.3099 7.06005L28.2199 3.23005C28.4599 2.75005 29.0499 2.55005 29.5299 2.79005C30.0099 3.03005 30.2099 3.62005 29.9699 4.10005L28.0599 7.93005C27.8899 8.27005 27.5399 8.47005 27.1799 8.47005H27.1899Z" fill="white"/>
<path d="M30.8699 11.3699C30.5999 11.3699 30.3399 11.2599 30.1399 11.0499C29.7799 10.6499 29.8099 10.0299 30.2099 9.66995L33.6599 6.55995C34.0599 6.19995 34.6799 6.22995 35.0399 6.62995C35.3999 7.02995 35.3699 7.64995 34.9699 8.00995L31.5199 11.1199C31.3299 11.2899 31.0999 11.3699 30.8599 11.3699H30.8699Z" fill="white"/>
<path d="M18.8499 8.47005C18.4899 8.47005 18.1399 8.27005 17.9699 7.93005L16.0599 4.10005C15.8199 3.62005 16.0199 3.03005 16.4999 2.79005C16.9799 2.55005 17.5699 2.75005 17.8099 3.23005L19.7199 7.06005C19.9599 7.54005 19.7599 8.13005 19.2799 8.37005C19.1399 8.44005 18.9899 8.47005 18.8399 8.47005H18.8499Z" fill="white"/>
<path d="M15.17 11.3699C14.94 11.3699 14.7 11.2899 14.51 11.1199L11.06 8.00995C10.66 7.64995 10.63 7.02995 10.99 6.62995C11.35 6.22995 11.97 6.19995 12.37 6.55995L15.82 9.66995C16.22 10.0299 16.25 10.6499 15.89 11.0499C15.7 11.2599 15.43 11.3699 15.16 11.3699H15.17Z" fill="white"/>
</g>
<defs>
<clipPath id="clip0_1_298">
<rect width="50" height="50" fill="white"/>
</clipPath>
</defs>
</svg>
