<svg width="50" height="50" viewBox="0 0 50 50" fill="none" xmlns="http://www.w3.org/2000/svg">
<g clip-path="url(#clip0_1_321)">
<path d="M26.38 49.75C20.08 49.75 14.16 47.3 9.7 42.86C5.24 38.42 2.78 32.51 2.75 26.21C2.75 25.91 2.87 25.62 3.08 25.4C3.29 25.19 3.58 25.07 3.88 25.07H25.23V3.64C25.23 3.01 25.74 2.5 26.37 2.5C32.68 2.5 38.61 4.96 43.07 9.42C47.53 13.88 49.99 19.81 49.99 26.12C49.99 32.43 49.99 26.19 49.99 26.22C49.96 32.51 47.5 38.41 43.04 42.85C38.58 47.29 32.66 49.74 26.36 49.74L26.38 49.75ZM5.06 27.35C5.35 32.61 7.55 37.51 11.3 41.25C15.33 45.27 20.68 47.48 26.37 47.48C32.06 47.48 37.41 45.27 41.44 41.25C45.47 37.23 47.7 31.89 47.72 26.21C47.72 26.2 47.72 26.19 47.72 26.17C47.72 26.16 47.72 26.14 47.72 26.13C47.72 20.43 45.5 15.07 41.47 11.03C37.71 7.27 32.79 5.08 27.51 4.81V26.21C27.51 26.84 27 27.35 26.37 27.35H5.06Z" fill="white"/>
<path d="M26.3801 49.75C21.6601 49.75 17.5501 44.48 15.6401 36.01C14.9501 32.93 14.5901 29.64 14.5901 26.21C14.5901 25.91 14.7101 25.62 14.9201 25.41C15.1301 25.2 15.4201 25.08 15.7201 25.08H25.2401V3.64C25.2401 3.01 25.7501 2.5 26.3801 2.5C31.1001 2.5 35.2101 7.77 37.1201 16.24C37.8201 19.35 38.1701 22.67 38.1701 26.12V26.2C38.1701 29.63 37.8101 32.92 37.1201 36C35.2101 44.48 31.1001 49.74 26.3801 49.74V49.75ZM16.8701 27.35C16.9401 30.2 17.2701 32.94 17.8501 35.51C18.6701 39.15 19.9401 42.21 21.5201 44.36C22.5601 45.78 24.2501 47.47 26.3701 47.47C28.4901 47.47 30.1801 45.78 31.2201 44.36C32.8001 42.21 34.0701 39.14 34.8901 35.51C35.5501 32.6 35.8801 29.47 35.8901 26.21V26.13C35.8901 22.85 35.5501 19.69 34.8901 16.75C34.0701 13.11 32.8001 10.05 31.2201 7.9C30.3701 6.74 29.0901 5.41 27.5001 4.95V26.22C27.5001 26.85 26.9901 27.36 26.3601 27.36H16.8601L16.8701 27.35Z" fill="white"/>
<path d="M26.38 37.92C22.93 37.92 19.6 37.57 16.5 36.87C8.10001 34.98 2.84001 30.9 2.76001 26.23C2.76001 25.93 2.87001 25.63 3.09001 25.41C3.30001 25.19 3.60001 25.07 3.90001 25.07H25.25V15.47C25.25 14.84 25.76 14.33 26.39 14.33C29.84 14.33 33.17 14.68 36.27 15.38C44.75 17.29 50.01 21.4 50.01 26.12C50.01 30.84 50.01 26.19 50.01 26.23C49.93 30.9 44.66 34.97 36.27 36.86C33.17 37.56 29.84 37.91 26.39 37.91L26.38 37.92ZM5.21001 27.35C5.69001 28.92 7.03001 30.18 8.18001 31.01C10.33 32.58 13.38 33.84 16.99 34.65C19.93 35.31 23.09 35.65 26.37 35.65C29.65 35.65 32.81 35.31 35.75 34.65C39.36 33.84 42.41 32.58 44.56 31.01C45.98 29.98 47.68 28.3 47.71 26.19C47.71 26.19 47.71 26.18 47.71 26.17C47.71 26.16 47.71 26.14 47.71 26.13C47.71 24.01 46.02 22.32 44.6 21.28C42.45 19.7 39.38 18.43 35.75 17.61C33.15 17.03 30.38 16.7 27.5 16.63V26.22C27.5 26.85 26.99 27.36 26.36 27.36H5.21001V27.35Z" fill="white"/>
<path d="M26.38 49.75C25.75 49.75 25.24 49.24 25.24 48.61V3.64C25.24 3.01 25.75 2.5 26.38 2.5C27.01 2.5 27.52 3.01 27.52 3.64V48.61C27.52 49.24 27.01 49.75 26.38 49.75Z" fill="white"/>
<path d="M48.86 27.3499H3.89C3.26 27.3499 2.75 26.8399 2.75 26.2099C2.75 25.5799 3.26 25.0699 3.89 25.0699H48.86C49.49 25.0699 50 25.5799 50 26.2099C50 26.8399 49.49 27.3499 48.86 27.3499Z" fill="white"/>
<path d="M17.01 21.5699C16.54 21.5699 16.11 21.2799 15.94 20.8199C15.73 20.2299 16.04 19.5799 16.62 19.3699C16.83 19.2899 21.4 17.5399 21.4 12.1099C21.4 8.57994 19.2 5.66994 17.53 3.96994C17.32 4.78994 16.9 5.69994 16.16 6.62994C15.66 7.24994 15.13 7.82994 14.62 8.38994C13.6 9.50994 12.55 10.6599 12.55 11.3799C12.55 12.0099 12.04 12.5199 11.41 12.5199C10.78 12.5199 10.27 12.0099 10.27 11.3799C10.27 9.76994 11.56 8.35994 12.94 6.84994C13.43 6.31994 13.93 5.76994 14.38 5.19994C15.84 3.38994 15.35 2.02994 15.29 1.87994C15.04 1.41994 15.16 0.869941 15.55 0.519941C15.94 0.169941 16.54 0.159941 16.97 0.459941C17.24 0.649941 23.66 5.22994 23.66 12.0999C23.66 15.7899 21.96 18.1499 20.53 19.4799C18.99 20.9099 17.44 21.4799 17.37 21.4999C17.24 21.5499 17.11 21.5699 16.99 21.5699H17.01Z" fill="white"/>
<path d="M11.4199 23.97C9.87988 23.97 8.02988 23.58 6.07988 22.3101C0.77988 18.86 0.0298803 11.5 -0.000119729 11.18C-0.0501197 10.67 0.22988 10.18 0.70988 10C1.17988 9.82005 1.69988 9.95005 2.00988 10.35C2.11988 10.47 3.17988 11.54 5.60988 11.3C6.12988 11.25 6.79988 11.09 7.50988 10.92C10.1599 10.28 14.1699 9.32005 17.2399 12.82C20.0899 16.07 18.9499 19.64 17.9499 21.08C17.2999 22.02 15.6899 23.2 13.5699 23.71C12.9599 23.86 12.2299 23.97 11.4199 23.97ZM2.72988 13.3C3.31988 15.47 4.60988 18.65 7.30988 20.41C8.76988 21.36 10.1699 21.7 11.4199 21.7C13.8399 21.7 15.6499 20.4 16.0799 19.79C16.7299 18.86 17.4499 16.51 15.5299 14.32C13.3599 11.85 10.5399 12.53 8.03988 13.13C7.24988 13.32 6.50988 13.5 5.82988 13.56C4.56988 13.68 3.54988 13.54 2.72988 13.29V13.3Z" fill="white"/>
<path d="M16.9899 21.41C16.5399 21.41 16.1099 21.14 15.9299 20.69C15.3599 19.22 14.3099 18.37 12.7399 18.07C11.4699 17.83 10.3299 18.07 10.3199 18.07C9.7099 18.2 9.0999 17.82 8.9699 17.21C8.8299 16.6 9.2199 15.99 9.8299 15.86C9.8899 15.85 11.3699 15.52 13.0799 15.82C15.4699 16.24 17.1899 17.64 18.0499 19.86C18.2799 20.44 17.9899 21.1 17.3999 21.33C17.2599 21.38 17.1199 21.41 16.9899 21.41Z" fill="white"/>
</g>
<defs>
<clipPath id="clip0_1_321">
<rect width="50" height="50" fill="white"/>
</clipPath>
</defs>
</svg>
