<svg width="50" height="50" viewBox="0 0 50 50" fill="none" xmlns="http://www.w3.org/2000/svg">
<g clip-path="url(#clip0_1_330)">
<path d="M35.38 12.1901C35.09 12.1901 34.8 12.0801 34.58 11.8701L25 2.78006L15.49 11.8601C15.02 12.3101 14.28 12.2901 13.84 11.8201C13.39 11.3501 13.41 10.6101 13.88 10.1701L24.19 0.320059C24.64 -0.109941 25.35 -0.109941 25.8 0.320059L36.18 10.1701C36.65 10.6101 36.67 11.3501 36.22 11.8201C35.99 12.0601 35.68 12.1801 35.37 12.1801L35.38 12.1901Z" fill="white"/>
<path d="M25.0001 18.18C24.3601 18.18 23.8301 17.66 23.8301 17.01V1.17C23.8301 0.53 24.3501 0 25.0001 0C25.6501 0 26.1701 0.52 26.1701 1.17V17.01C26.1701 17.65 25.6501 18.18 25.0001 18.18Z" fill="white"/>
<path d="M25.0001 50C24.3601 50 23.8301 49.48 23.8301 48.83V37.41C23.8301 36.77 24.3501 36.24 25.0001 36.24C25.6501 36.24 26.1701 36.76 26.1701 37.41V48.83C26.1701 49.47 25.6501 50 25.0001 50Z" fill="white"/>
<path d="M20.85 38.75C17.35 38.75 12.36 37.98 8.91999 34.17C6.94999 32 5.76999 28.8 5.39999 24.66C5.12999 21.65 5.40999 19.27 5.42999 19.17C5.48999 18.7 5.81999 18.31 6.27999 18.18C6.58999 18.09 14 16.11 20.76 20.76C23.78 22.83 25.61 26.4 26.06 31.08C26.39 34.51 25.87 37.33 25.85 37.45C25.76 37.91 25.4 38.28 24.94 38.38C24.77 38.41 23.13 38.74 20.86 38.74L20.85 38.75ZM7.67999 20.28C7.53999 22.57 7.44999 29.07 10.65 32.6C14.59 36.95 21.35 36.52 23.66 36.22C23.95 33.73 24.4 26.1 19.43 22.69C14.77 19.48 9.59999 19.95 7.66999 20.27L7.67999 20.28Z" fill="white"/>
<path d="M29.15 38.75C26.87 38.75 25.23 38.42 25.07 38.39C24.61 38.29 24.25 37.93 24.16 37.46C24.14 37.34 23.62 34.52 23.95 31.09C24.4 26.41 26.23 22.84 29.25 20.77C36.01 16.12 43.42 18.1 43.73 18.19C44.19 18.32 44.52 18.71 44.58 19.18C44.59 19.28 44.87 21.66 44.61 24.67C44.24 28.81 43.06 32 41.09 34.18C37.65 37.98 32.65 38.76 29.16 38.76L29.15 38.75ZM26.34 36.22C28.65 36.52 35.41 36.95 39.35 32.6C42.55 29.07 42.46 22.57 42.32 20.28C40.39 19.95 35.23 19.49 30.56 22.7C25.6 26.11 26.04 33.74 26.33 36.23L26.34 36.22Z" fill="white"/>
</g>
<defs>
<clipPath id="clip0_1_330">
<rect width="50" height="50" fill="white"/>
</clipPath>
</defs>
</svg>
