<svg width="50" height="50" viewBox="0 0 50 50" fill="none" xmlns="http://www.w3.org/2000/svg">
<g clip-path="url(#clip0_1_123)">
<path d="M28.7 49.2499C26.62 49.2499 24.73 48.8899 23.18 48.1899C18.57 46.0999 12.34 46.3899 12.27 46.3899C11.66 46.4199 11.15 45.9499 11.12 45.3499C11.09 44.7399 11.56 44.2299 12.16 44.1899C12.44 44.1799 18.98 43.8699 24.09 46.1799C26.23 47.1499 29.35 47.3099 32.66 46.6099C36.08 45.8899 39.35 44.3599 41.86 42.3199C45 39.7699 47.72 37.5599 47.8 35.8299C47.84 35.0999 47.4 34.2899 46.47 33.3699C45.06 31.9599 44.05 32.5299 41.29 34.6699C39.59 35.9899 37.67 37.4799 35.21 38.1099C29.45 39.5999 25.95 39.0499 25.8 39.0199C25.2 38.9199 24.79 38.3499 24.89 37.7499C24.99 37.1499 25.56 36.7499 26.16 36.8399C27.26 37.0099 30.45 37.0599 34.66 35.9699C36.67 35.4499 38.41 34.0999 39.94 32.9199C41.21 31.9299 42.42 30.9999 43.68 30.5999C45.26 30.0999 46.72 30.4999 48.03 31.7999C49.43 33.1899 50.07 34.5399 50 35.9299C49.86 38.6399 47.09 40.8999 43.25 44.0199C40.47 46.2799 36.87 47.9599 33.12 48.7599C31.59 49.0799 30.11 49.2399 28.71 49.2399L28.7 49.2499Z" fill="#607697"/>
<path d="M33.73 38.43C33.23 38.43 32.78 38.09 32.66 37.59C32.53 37.0601 32.82 36.5201 33.31 36.3201C33.68 35.7301 33.86 33.18 33.63 31.68C33.6 31.61 32.72 30.0901 24.29 29.1101C18.22 28.4101 13.07 33.8401 13.02 33.89C12.61 34.33 11.91 34.3601 11.47 33.9501C11.03 33.5401 11 32.8401 11.41 32.4001C11.65 32.1401 17.36 26.09 24.54 26.93C34.19 28.05 35.58 29.98 35.8 31.33C35.92 32.1 35.99 33.5701 35.85 34.9501C35.78 35.7101 35.55 38.0301 33.99 38.4101C33.9 38.4301 33.82 38.4401 33.73 38.4401V38.43Z" fill="#607697"/>
<path d="M32.49 21.0601C32.24 21.0601 32 20.9601 31.83 20.7701L22.53 10.9001C22.46 10.8201 20.71 8.89006 20.89 6.31006C21.01 4.64006 21.88 3.13006 23.49 1.81006C24.77 0.760065 26.18 0.300064 27.69 0.450064C29.83 0.660064 31.6 2.07006 32.53 2.97006C33.06 2.48006 33.85 1.84006 34.8 1.33006C37.26 0.0100645 39.59 0.180065 41.53 1.82006C43.06 3.12006 43.93 4.62006 44.1 6.28006C44.27 7.94006 43.7 9.60007 42.53 10.8501L33.17 20.7901C33 20.9701 32.76 21.0801 32.51 21.0801L32.49 21.0601ZM23.86 9.66006L32.49 18.8201L41.19 9.59007C42 8.73007 42.4 7.59006 42.28 6.46006C42.16 5.28006 41.51 4.19006 40.34 3.20006C38.99 2.06006 37.47 1.96006 35.68 2.90006C34.23 3.67006 33.19 4.85006 33.18 4.86006C33 5.06006 32.75 5.18006 32.48 5.17006C32.21 5.17006 31.96 5.04006 31.79 4.84006C31.76 4.81006 30.78 3.63006 29.37 2.87006C27.62 1.92006 26.07 2.03006 24.64 3.21006C23.44 4.20006 22.79 5.27006 22.71 6.41006C22.58 8.15006 23.8 9.57006 23.87 9.65007L23.86 9.66006Z" fill="#607697"/>
<path d="M10.05 49.58H2.68C1.2 49.58 0 48.38 0 46.9V29.2C0 27.72 1.2 26.52 2.68 26.52H10.05C11.53 26.52 12.73 27.72 12.73 29.2V46.9C12.73 48.38 11.53 49.58 10.05 49.58ZM2.68 28.72C2.42 28.72 2.2 28.94 2.2 29.2V46.9C2.2 47.16 2.42 47.38 2.68 47.38H10.05C10.31 47.38 10.53 47.16 10.53 46.9V29.2C10.53 28.94 10.31 28.72 10.05 28.72H2.68Z" fill="#607697"/>
</g>
<defs>
<clipPath id="clip0_1_123">
<rect width="50" height="50" fill="white"/>
</clipPath>
</defs>
</svg>
