<svg width="50" height="50" viewBox="0 0 50 50" fill="none" xmlns="http://www.w3.org/2000/svg">
<path d="M25 43.3499C24.36 43.3499 23.85 42.8399 23.85 42.1999V36.3099C23.85 35.6699 24.36 35.1599 25 35.1599C25.64 35.1599 26.15 35.6699 26.15 36.3099V42.1999C26.15 42.8399 25.64 43.3499 25 43.3499Z" fill="#607697"/>
<path d="M25 14.0499C24.36 14.0499 23.85 13.5399 23.85 12.8999V7.78989C23.85 7.14989 24.36 6.63989 25 6.63989C25.64 6.63989 26.15 7.14989 26.15 7.78989V12.8999C26.15 13.5399 25.64 14.0499 25 14.0499Z" fill="#607697"/>
<path d="M48.85 43.35H1.15C0.51 43.35 0 42.84 0 42.2C0 41.56 0.51 41.05 1.15 41.05H48.85C49.49 41.05 50 41.56 50 42.2C50 42.84 49.49 43.35 48.85 43.35Z" fill="#607697"/>
<path d="M29.22 8.9499H20.79C20.15 8.9499 19.64 8.4399 19.64 7.7999C19.64 7.1599 20.15 6.6499 20.79 6.6499H29.22C29.86 6.6499 30.37 7.1599 30.37 7.7999C30.37 8.4399 29.86 8.9499 29.22 8.9499Z" fill="#607697"/>
<path d="M10.42 28.82C10.25 28.82 10.07 28.78 9.89999 28.7C9.32999 28.41 9.10999 27.72 9.38999 27.15C11.86 22.28 16.04 18.55 21.16 16.67C21.76 16.45 22.42 16.76 22.64 17.35C22.86 17.95 22.55 18.61 21.96 18.83C17.39 20.51 13.65 23.84 11.45 28.19C11.25 28.59 10.84 28.82 10.42 28.82Z" fill="#607697"/>
<path d="M42.57 37.46H7.43C5.25 37.46 3.48 35.69 3.48 33.51V33.28C3.48 27.53 5.72 22.13 9.78 18.06C13.84 14 19.25 11.76 25 11.76C30.75 11.76 36.15 14 40.22 18.06C44.28 22.12 46.52 27.53 46.52 33.28V33.51C46.52 35.69 44.75 37.46 42.57 37.46ZM25 14.05C14.4 14.05 5.78 22.67 5.78 33.27V33.5C5.78 34.41 6.52 35.15 7.43 35.15H42.57C43.48 35.15 44.22 34.41 44.22 33.5V33.27C44.22 22.67 35.6 14.05 25 14.05Z" fill="#607697"/>
</svg>
