<svg width="50" height="50" viewBox="0 0 50 50" fill="none" xmlns="http://www.w3.org/2000/svg">
<g clip-path="url(#clip0_1_135)">
<path d="M1.13999 43.48C0.49999 43.48 -0.0100098 42.97 -0.0100098 42.33V7.67002C-0.0100098 7.03002 0.49999 6.52002 1.13999 6.52002C1.77999 6.52002 2.28999 7.03002 2.28999 7.67002V42.33C2.28999 42.97 1.77999 43.48 1.13999 43.48Z" fill="#607697"/>
<path d="M48.86 43.4801C48.22 43.4801 47.71 42.9701 47.71 42.3301V19.0101C47.71 18.3701 48.22 17.8601 48.86 17.8601C49.5 17.8601 50.01 18.3701 50.01 19.0101V42.3301C50.01 42.9701 49.5 43.4801 48.86 43.4801Z" fill="#607697"/>
<path d="M47.16 32.56H2.83999C1.26999 32.56 -0.0100098 31.28 -0.0100098 29.71V24.8C-0.0100098 23.23 1.26999 21.95 2.83999 21.95H47.17C48.74 21.95 50.02 23.23 50.02 24.8V29.71C50.02 31.28 48.74 32.56 47.17 32.56H47.16ZM2.83999 24.24C2.53999 24.24 2.28999 24.49 2.28999 24.79V29.7C2.28999 30 2.53999 30.25 2.83999 30.25H47.17C47.47 30.25 47.72 30 47.72 29.7V24.79C47.72 24.49 47.47 24.24 47.17 24.24H2.83999Z" fill="#607697"/>
<path d="M14.66 24.24H4.09999C1.82999 24.24 -0.0100098 22.4 -0.0100098 20.13C-0.0100098 17.86 1.83999 16.02 4.09999 16.02H14.66C16.93 16.02 18.77 17.87 18.77 20.13C18.77 22.39 16.92 24.24 14.66 24.24ZM4.09999 18.31C3.09999 18.31 2.28999 19.12 2.28999 20.12C2.28999 21.12 3.09999 21.93 4.09999 21.93H14.66C15.66 21.93 16.47 21.12 16.47 20.12C16.47 19.12 15.66 18.31 14.66 18.31H4.09999Z" fill="#607697"/>
</g>
<defs>
<clipPath id="clip0_1_135">
<rect width="50" height="50" fill="white"/>
</clipPath>
</defs>
</svg>
