<svg width="18" height="14" viewBox="0 0 18 14" fill="none" xmlns="http://www.w3.org/2000/svg">
<path d="M7 9.5C6.72386 9.5 6.5 9.72386 6.5 10C6.5 10.2761 6.72386 10.5 7 10.5L7 10L7 9.5ZM17.3536 10.3536C17.5488 10.1583 17.5488 9.84171 17.3536 9.64645L14.1716 6.46447C13.9763 6.2692 13.6597 6.2692 13.4645 6.46447C13.2692 6.65973 13.2692 6.97631 13.4645 7.17157L16.2929 10L13.4645 12.8284C13.2692 13.0237 13.2692 13.3403 13.4645 13.5355C13.6597 13.7308 13.9763 13.7308 14.1716 13.5355L17.3536 10.3536ZM7 10L7 10.5L17 10.5L17 10L17 9.5L7 9.5L7 10Z" fill="#C6C6C6"/>
<path d="M11 3.5C11.2761 3.5 11.5 3.72386 11.5 4C11.5 4.27614 11.2761 4.5 11 4.5L11 4L11 3.5ZM0.646446 4.35355C0.451184 4.15829 0.451184 3.84171 0.646446 3.64645L3.82843 0.464467C4.02369 0.269205 4.34027 0.269204 4.53553 0.464467C4.7308 0.659729 4.7308 0.976311 4.53553 1.17157L1.70711 4L4.53553 6.82843C4.7308 7.02369 4.7308 7.34027 4.53553 7.53553C4.34027 7.7308 4.02369 7.7308 3.82843 7.53553L0.646446 4.35355ZM11 4L11 4.5L1 4.5L1 4L1 3.5L11 3.5L11 4Z" fill="#C6C6C6"/>
</svg>
