<svg width="50" height="50" viewBox="0 0 50 50" fill="none" xmlns="http://www.w3.org/2000/svg">
<g clip-path="url(#clip0_1_140)">
<path d="M46.52 50H3.48005C2.52005 50 1.60005 49.6 0.950047 48.9C0.300047 48.2 -0.0499529 47.26 0.0100471 46.3L1.46005 23.1C1.50005 22.47 2.04005 22 2.66005 22.04C3.29005 22.08 3.76005 22.62 3.72005 23.24L2.27005 46.44C2.25005 46.78 2.36005 47.1 2.59005 47.34C2.82005 47.58 3.13005 47.72 3.47005 47.72H46.51C47.17 47.72 47.72 47.18 47.72 46.51V25.77L39.52 33.37C39.19 33.68 38.71 33.76 38.29 33.58C37.87 33.4 37.61 32.99 37.61 32.54V25.6L28.25 33.41C27.91 33.69 27.44 33.75 27.04 33.57C26.64 33.38 26.39 32.98 26.39 32.54V25.59L16.94 33.42C16.61 33.69 16.16 33.76 15.76 33.59C15.37 33.42 15.1 33.04 15.08 32.62L14.52 23.25C14.48 22.62 14.96 22.09 15.59 22.05C16.22 22.01 16.75 22.49 16.79 23.12L17.21 30.25L26.79 22.31C27.13 22.03 27.6 21.97 28 22.16C28.4 22.35 28.65 22.75 28.65 23.19V30.13L38.01 22.32C38.35 22.04 38.82 21.98 39.22 22.16C39.62 22.35 39.87 22.75 39.87 23.19V29.96L48.07 22.36C48.4 22.05 48.88 21.97 49.3 22.15C49.71 22.33 49.98 22.74 49.98 23.19V46.53C49.98 48.45 48.42 50.01 46.5 50.01L46.52 50Z" fill="#607697"/>
<path d="M2.59002 24.3099C2.57002 24.3099 2.54002 24.3099 2.52002 24.3099C1.89002 24.2699 1.42002 23.7299 1.46002 23.1099L2.19002 11.3999C2.21002 11.0599 2.38002 10.7499 2.66002 10.5499C2.94002 10.3499 3.29002 10.2899 3.62002 10.3799C7.24002 11.3499 11.06 11.3499 14.67 10.3799C15 10.2899 15.35 10.3599 15.63 10.5599C15.91 10.7599 16.08 11.0699 16.1 11.4099L16.8 23.1199C16.84 23.7499 16.36 24.2799 15.73 24.3199C15.1 24.3599 14.57 23.8799 14.53 23.2499L13.91 12.8899C10.77 13.5399 7.52002 13.5399 4.37002 12.8899L3.72002 23.2499C3.68002 23.8499 3.18002 24.3099 2.59002 24.3099Z" fill="#607697"/>
<path d="M7.17003 8.7499C6.54003 8.7499 6.03003 8.2399 6.03003 7.6099V5.7899C6.03003 5.1599 6.54003 4.6499 7.17003 4.6499C7.80003 4.6499 8.31003 5.1599 8.31003 5.7899V7.6099C8.31003 8.2399 7.80003 8.7499 7.17003 8.7499Z" fill="#607697"/>
<path d="M8.08 7.84006H6.25999C5.62999 7.84006 5.12 7.33006 5.12 6.70006C5.12 6.07006 5.62999 5.56006 6.25999 5.56006H8.08C8.71 5.56006 9.21999 6.07006 9.21999 6.70006C9.21999 7.33006 8.71 7.84006 8.08 7.84006Z" fill="#607697"/>
<path d="M12.25 4.83999C11.62 4.83999 11.11 4.32999 11.11 3.69999V1.87999C11.11 1.24999 11.62 0.73999 12.25 0.73999C12.88 0.73999 13.39 1.24999 13.39 1.87999V3.69999C13.39 4.32999 12.88 4.83999 12.25 4.83999Z" fill="#607697"/>
<path d="M13.16 3.93991H11.34C10.71 3.93991 10.2 3.42991 10.2 2.79991C10.2 2.16991 10.71 1.65991 11.34 1.65991H13.16C13.79 1.65991 14.3 2.16991 14.3 2.79991C14.3 3.42991 13.79 3.93991 13.16 3.93991Z" fill="#607697"/>
</g>
<defs>
<clipPath id="clip0_1_140">
<rect width="50" height="50" fill="white"/>
</clipPath>
</defs>
</svg>
