<svg width="50" height="50" viewBox="0 0 50 50" fill="none" xmlns="http://www.w3.org/2000/svg">
<path d="M36.73 45.9C37.8733 45.9 38.8 44.9732 38.8 43.83C38.8 42.6868 37.8733 41.76 36.73 41.76C35.5868 41.76 34.66 42.6868 34.66 43.83C34.66 44.9732 35.5868 45.9 36.73 45.9Z" fill="#607697"/>
<path d="M23.28 45.9C24.4232 45.9 25.35 44.9732 25.35 43.83C25.35 42.6868 24.4232 41.76 23.28 41.76C22.1367 41.76 21.21 42.6868 21.21 43.83C21.21 44.9732 22.1367 45.9 23.28 45.9Z" fill="#607697"/>
<path d="M40.7499 40.4799H20.2199C17.7199 40.4799 15.6899 38.4499 15.6899 35.9499V34.7099C15.6899 32.2099 17.7199 30.1799 20.2199 30.1799H26.4999C27.1199 30.1799 27.6199 30.6799 27.6199 31.2999C27.6199 31.9199 27.1199 32.4199 26.4999 32.4199H20.2199C18.9599 32.4199 17.9399 33.4399 17.9399 34.6999V35.9399C17.9399 37.1999 18.9599 38.2199 20.2199 38.2199H40.7499C41.3699 38.2199 41.8699 38.7199 41.8699 39.3399C41.8699 39.9599 41.3699 40.4599 40.7499 40.4599V40.4799Z" fill="#607697"/>
<path d="M40.75 32.4301H22.42C20.6 32.4301 18.82 31.8101 17.41 30.7001C11.28 25.8501 10.94 19.1501 10.63 13.2401C10.61 12.9301 10.6 12.6101 10.58 12.3001C10.51 10.9201 10.27 9.7401 9.87 8.7801C9.26 7.3201 7.73 6.3401 6.07 6.3401H1.12C0.5 6.3401 0 5.8401 0 5.2201C0 4.6001 0.5 4.1001 1.12 4.1001H6.06C8.66 4.1001 10.97 5.6001 11.94 7.9201C12.44 9.1101 12.73 10.5401 12.82 12.1801C12.84 12.4901 12.85 12.8101 12.87 13.1201C13.16 18.8201 13.46 24.7201 18.8 28.9301C19.82 29.7401 21.11 30.1801 22.42 30.1801H40.75C42 30.1801 43.14 29.4501 43.66 28.3201L47.49 18.1301C47.96 16.8801 47.79 15.5401 47.03 14.4501C46.27 13.3601 45.07 12.7301 43.74 12.7301H18.87C18.25 12.7301 17.75 12.2301 17.75 11.6101C17.75 10.9901 18.25 10.4901 18.87 10.4901H43.74C45.79 10.4901 47.71 11.5001 48.87 13.1801C50.04 14.8601 50.3 17.0101 49.58 18.9301L45.74 29.1601C45.74 29.1801 45.72 29.2001 45.71 29.2301C44.83 31.1801 42.88 32.4501 40.73 32.4501L40.75 32.4301Z" fill="#607697"/>
<path d="M9.26001 20.47H1.12001C0.720015 20.47 0.390015 20.14 0.390015 19.74C0.390015 19.34 0.720015 19.01 1.12001 19.01H9.25001C9.65001 19.01 9.98001 19.34 9.98001 19.74C9.98001 20.14 9.65001 20.47 9.25001 20.47H9.26001Z" fill="#607697"/>
<path d="M10.57 24.91H2.43996C2.03996 24.91 1.70996 24.58 1.70996 24.18C1.70996 23.78 2.03996 23.45 2.43996 23.45H10.57C10.97 23.45 11.3 23.78 11.3 24.18C11.3 24.58 10.97 24.91 10.57 24.91Z" fill="#607697"/>
</svg>
