<svg width="50" height="50" viewBox="0 0 50 50" fill="none" xmlns="http://www.w3.org/2000/svg">
<path d="M23.6701 6.60998C24.0101 6.60998 24.2901 6.88998 24.2901 7.22998V8.70998H16.3801V7.22998C16.3801 6.88998 16.6601 6.60998 17.0001 6.60998H23.6701ZM23.6701 4.34998H17.0001C15.4101 4.34998 14.1201 5.63998 14.1201 7.22998V10.96H26.5401V7.22998C26.5401 5.63998 25.2501 4.34998 23.6601 4.34998H23.6701Z" fill="white"/>
<path d="M39.2301 45.6501C39.0301 45.6501 38.8301 45.6 38.6501 45.49C38.4101 45.35 32.7201 41.9101 30.0101 37.7201C27.2801 33.4801 27.6601 29.6201 31.0601 27.1201C32.9101 25.7601 35.0701 25.5501 37.3101 26.5201C38.0901 26.8501 38.7401 27.28 39.2101 27.63C39.6601 27.28 40.2801 26.86 41.0201 26.53C43.1901 25.56 45.3201 25.7601 47.1901 27.1201C48.7501 28.2501 49.7001 29.84 49.9401 31.73C50.2401 34.09 49.3501 36.58 48.3201 37.83L48.2601 37.9001C46.8701 39.58 43.9701 43.0801 39.7901 45.5101C39.6101 45.6101 39.4201 45.6601 39.2201 45.6601L39.2301 45.6501ZM34.6101 28.19C33.8901 28.19 33.1401 28.39 32.3901 28.94C30.8601 30.07 30.2501 31.46 30.5201 33.19C30.7601 34.72 31.6201 36.05 31.9001 36.49C33.8501 39.52 37.7701 42.24 39.2301 43.1901C42.7601 40.9801 45.2801 37.95 46.5201 36.45L46.5801 36.38C47.1801 35.65 47.9301 33.8101 47.7001 32.0001C47.5401 30.7301 46.9201 29.7 45.8701 28.94C44.6701 28.07 43.4101 27.9501 42.0001 28.5601C40.8501 29.0601 40.0601 29.88 40.0501 29.89C39.8401 30.11 39.5501 30.24 39.2501 30.24C38.9501 30.24 38.6501 30.1301 38.4401 29.9101C38.3501 29.8201 36.6501 28.19 34.6201 28.19H34.6101Z" fill="white"/>
<path d="M28.45 39.95H4.66C2.09 39.95 0 37.86 0 35.29V14C0 11.43 2.09 9.33997 4.66 9.33997H35.72C38.29 9.33997 40.38 11.43 40.38 14V25.45C40.38 25.83 40.19 26.19 39.86 26.4L39.81 26.43C39.44 26.67 38.97 26.67 38.59 26.43C37.59 25.8 36.03 25.05 34.23 25.05C32.43 25.05 31.54 25.49 30.36 26.36C26.65 29.09 26.22 33.31 29.2 37.93C29.26 38.02 29.31 38.1 29.37 38.19C29.61 38.54 29.63 38.98 29.44 39.35C29.24 39.72 28.86 39.95 28.44 39.95H28.45ZM4.66 11.59C3.33 11.59 2.26 12.67 2.26 13.99V35.28C2.26 36.61 3.34 37.68 4.66 37.68H26.46C25.3 35.43 24.81 33.18 25.04 31.1C25.32 28.51 26.7 26.23 29.02 24.53C30.6 23.37 32.35 22.78 34.23 22.78C36.11 22.78 37.02 23.15 38.11 23.62V13.98C38.11 12.65 37.03 11.58 35.71 11.58H4.66V11.59Z" fill="white"/>
</svg>
